<?xml version="1.0" encoding="UTF-8"?>
<svg xmlns="http://www.w3.org/2000/svg" xmlns:xlink="http://www.w3.org/1999/xlink" viewBox="0 0 1403.08 801.76">
  <defs>
    <style>
      .cls-1 {
        fill: url(#linear-gradient-16);
      }

      .cls-1, .cls-2, .cls-3, .cls-4, .cls-5, .cls-6, .cls-7, .cls-8, .cls-9, .cls-10, .cls-11, .cls-12 {
        stroke: #000;
        stroke-miterlimit: 10;
        stroke-width: .14px;
      }

      .cls-2 {
        fill: url(#linear-gradient-6);
      }

      .cls-3 {
        fill: url(#linear-gradient-12);
      }

      .cls-13 {
        isolation: isolate;
      }

      .cls-14 {
        fill: url(#linear-gradient-3);
      }

      .cls-14, .cls-15, .cls-16, .cls-17, .cls-18, .cls-19, .cls-20, .cls-21, .cls-22 {
        stroke-width: 0px;
      }

      .cls-14, .cls-15, .cls-17, .cls-21, .cls-22 {
        mix-blend-mode: screen;
      }

      .cls-4, .cls-18 {
        fill: none;
      }

      .cls-15 {
        fill: url(#linear-gradient-4);
      }

      .cls-16 {
        fill: #0b1d2f;
      }

      .cls-17 {
        fill: url(#linear-gradient-2);
      }

      .cls-23 {
        fill: url(#linear-gradient-11);
      }

      .cls-19 {
        fill: #141414;
      }

      .cls-5 {
        fill: url(#linear-gradient-13);
      }

      .cls-20 {
        fill: #ccc;
      }

      .cls-6 {
        fill: url(#linear-gradient-18);
      }

      .cls-7 {
        fill: url(#linear-gradient-5);
      }

      .cls-8 {
        fill: url(#linear-gradient-10);
      }

      .cls-9 {
        fill: url(#linear-gradient-17);
      }

      .cls-24 {
        clip-path: url(#clippath);
      }

      .cls-10 {
        fill: url(#linear-gradient-14);
      }

      .cls-21 {
        fill: url(#linear-gradient-7);
      }

      .cls-22 {
        fill: url(#linear-gradient);
      }

      .cls-25 {
        fill: url(#linear-gradient-9);
      }

      .cls-11 {
        fill: url(#linear-gradient-15);
      }

      .cls-12 {
        fill: url(#linear-gradient-8);
      }
    </style>
    <clipPath id="clippath">
      <path class="cls-18" d="m87.98,0h1227.12c48.56,0,87.98,39.42,87.98,87.98v625.8c0,48.56-39.42,87.98-87.98,87.98H87.98c-48.56,0-87.98-39.42-87.98-87.98V87.98C0,39.42,39.42,0,87.98,0Z"/>
    </clipPath>
    <linearGradient id="linear-gradient" x1="948.51" y1="223.39" x2="1239.86" y2="347.79" gradientUnits="userSpaceOnUse">
      <stop offset="0" stop-color="#424242"/>
      <stop offset=".02" stop-color="#3c3c3c"/>
      <stop offset=".11" stop-color="#262626"/>
      <stop offset=".22" stop-color="#151515"/>
      <stop offset=".36" stop-color="#080808"/>
      <stop offset=".54" stop-color="#010101"/>
      <stop offset="1" stop-color="#000"/>
    </linearGradient>
    <linearGradient id="linear-gradient-2" x1="1020.53" y1="223.39" x2="1311.88" y2="347.79" xlink:href="#linear-gradient"/>
    <linearGradient id="linear-gradient-3" x1="1092.55" y1="223.39" x2="1383.9" y2="347.79" xlink:href="#linear-gradient"/>
    <linearGradient id="linear-gradient-4" x1="1164.57" y1="223.39" x2="1455.92" y2="347.79" xlink:href="#linear-gradient"/>
    <linearGradient id="linear-gradient-5" x1="421.76" y1="127.43" x2="781.03" y2="112.12" gradientTransform="translate(-99.22 76.51) rotate(9.65)" gradientUnits="userSpaceOnUse">
      <stop offset="0" stop-color="#6d6e70"/>
      <stop offset=".16" stop-color="#87898c"/>
      <stop offset=".32" stop-color="#a4a6a8"/>
      <stop offset=".43" stop-color="#a6a8ab"/>
    </linearGradient>
    <linearGradient id="linear-gradient-6" x1="258.55" y1="293.47" x2="431.83" y2="293.47" gradientTransform="translate(78.3 34.02) rotate(8.95)" xlink:href="#linear-gradient-5"/>
    <linearGradient id="linear-gradient-7" x1="367.41" y1="333.52" x2="408.72" y2="333.52" xlink:href="#linear-gradient"/>
    <linearGradient id="linear-gradient-8" x1="369.96" y1="319.85" x2="383.95" y2="319.85" gradientTransform="matrix(1,0,0,1,0,0)" xlink:href="#linear-gradient-5"/>
    <linearGradient id="linear-gradient-9" x1="255.18" y1="534.2" x2="345.66" y2="534.2" gradientTransform="matrix(1,0,0,1,0,0)" xlink:href="#linear-gradient-5"/>
    <linearGradient id="linear-gradient-10" x1="255.18" y1="534.2" x2="345.66" y2="534.2" gradientTransform="matrix(1,0,0,1,0,0)" xlink:href="#linear-gradient-5"/>
    <linearGradient id="linear-gradient-11" x1="459.02" y1="534.2" x2="541.57" y2="534.2" gradientTransform="matrix(1,0,0,1,0,0)" xlink:href="#linear-gradient-5"/>
    <linearGradient id="linear-gradient-12" x1="459.02" y1="534.2" x2="541.57" y2="534.2" gradientTransform="matrix(1,0,0,1,0,0)" xlink:href="#linear-gradient-5"/>
    <linearGradient id="linear-gradient-13" x1="353.05" y1="527.61" x2="368.16" y2="527.61" gradientTransform="matrix(1,0,0,1,0,0)" xlink:href="#linear-gradient-5"/>
    <linearGradient id="linear-gradient-14" x1="370.2" y1="527.61" x2="385.24" y2="527.61" gradientTransform="matrix(1,0,0,1,0,0)" xlink:href="#linear-gradient-5"/>
    <linearGradient id="linear-gradient-15" x1="387.76" y1="527.81" x2="402.68" y2="527.81" gradientTransform="matrix(1,0,0,1,0,0)" xlink:href="#linear-gradient-5"/>
    <linearGradient id="linear-gradient-16" x1="406.84" y1="527.61" x2="422.53" y2="527.61" gradientTransform="matrix(1,0,0,1,0,0)" xlink:href="#linear-gradient-5"/>
    <linearGradient id="linear-gradient-17" x1="426.51" y1="527.61" x2="429.02" y2="527.61" gradientTransform="matrix(1,0,0,1,0,0)" xlink:href="#linear-gradient-5"/>
    <linearGradient id="linear-gradient-18" x1="432.7" y1="527.61" x2="450.85" y2="527.61" gradientTransform="matrix(1,0,0,1,0,0)" xlink:href="#linear-gradient-5"/>
  </defs>
  <g class="cls-13">
    <g id="Layer_2" data-name="Layer 2">
      <g id="Layer_1-2" data-name="Layer 1">
        <path class="cls-16" d="m87.98,0h1227.12c48.56,0,87.98,39.42,87.98,87.98v625.8c0,48.56-39.42,87.98-87.98,87.98H87.98c-48.56,0-87.98-39.42-87.98-87.98V87.98C0,39.42,39.42,0,87.98,0Z"/>
        <g class="cls-24">
          <rect class="cls-19" x="-45.93" y="-59.27" width="1528.35" height="931.21"/>
          <g>
            <polygon class="cls-22" points="1148.41 -154.43 677 871.32 1842.42 871.32 1842.42 -158.79 1148.41 -154.43"/>
            <polygon class="cls-17" points="1220.43 -154.43 749.02 871.32 1914.44 871.32 1914.44 -158.79 1220.43 -154.43"/>
            <polygon class="cls-14" points="1292.45 -154.43 821.04 871.32 1986.46 871.32 1986.46 -158.79 1292.45 -154.43"/>
            <polygon class="cls-15" points="1364.47 -154.43 893.06 871.32 2058.48 871.32 2058.48 -158.79 1364.47 -154.43"/>
          </g>
        </g>
        <g>
          <g>
            <g>
              <path class="cls-20" d="m439.27,299.33c40.7,15.07,63.36,57.44,54.9,98.69,2.12-3.83,3.99-7.86,5.55-12.09,16.64-44.93-6.3-94.85-51.24-111.48-44.93-16.64-94.85,6.3-111.48,51.24-1.57,4.23-2.78,8.51-3.66,12.79,20.44-36.81,65.23-54.21,105.93-39.14Z"/>
              <path class="cls-7" d="m409.61,255.19c43.09-5.23,82.62,22.08,93.98,62.62.14-4.37-.05-8.81-.6-13.29-5.77-47.57-49.01-81.44-96.58-75.67-47.57,5.77-81.45,49.01-75.67,96.58.54,4.48,1.42,8.84,2.6,13.05,1.33-42.08,33.18-78.05,76.27-83.28Z"/>
            </g>
            <g>
              <path class="cls-20" d="m356.78,371.6c-40.89-14.57-64.06-56.66-56.11-98.01-2.08,3.85-3.89,7.91-5.4,12.16-16.08,45.13,7.47,94.76,52.6,110.84,45.14,16.08,94.76-7.47,110.84-52.6,1.51-4.25,2.68-8.54,3.5-12.84-19.99,37.06-64.56,55.01-105.44,40.44Z"/>
              <path class="cls-2" d="m382.23,410.88c-43.28,3.26-81.53-25.83-91.02-66.84-.34,4.36-.35,8.81,0,13.31,3.6,47.78,45.25,83.6,93.03,80,47.78-3.6,83.6-45.24,80-93.02-.34-4.5-1.02-8.89-2-13.16-3.25,41.98-36.71,76.46-79.99,79.72Z"/>
            </g>
            <circle class="cls-21" cx="388.07" cy="333.52" r="20.66"/>
            <circle class="cls-12" cx="376.95" cy="319.85" r="6.99"/>
          </g>
          <g>
            <path class="cls-20" d="m264.02,491.67v-32.36h-11.56v-6.59h30.96v6.59h-11.53v32.36h-7.87Z"/>
            <path class="cls-20" d="m288.52,491.67v-38.95h7.87v15.33h15.41v-15.33h7.87v38.95h-7.87v-17.03h-15.41v17.03h-7.87Z"/>
            <path class="cls-20" d="m327.55,491.67v-38.95h7.87v38.95h-7.87Z"/>
            <path class="cls-20" d="m342.94,491.67v-38.95h16.55c4.16,0,7.19.35,9.07,1.05,1.89.7,3.4,1.94,4.53,3.73,1.13,1.79,1.7,3.84,1.7,6.14,0,2.92-.86,5.34-2.58,7.24-1.72,1.9-4.29,3.1-7.71,3.6,1.7.99,3.1,2.08,4.21,3.27,1.11,1.19,2.6,3.29,4.48,6.32l4.76,7.6h-9.41l-5.69-8.48c-2.02-3.03-3.4-4.94-4.15-5.73-.74-.79-1.53-1.33-2.36-1.62-.83-.29-2.15-.44-3.96-.44h-1.59v16.26h-7.87Zm7.87-22.48h5.82c3.77,0,6.13-.16,7.07-.48.94-.32,1.67-.87,2.21-1.65.53-.78.8-1.75.8-2.92,0-1.31-.35-2.37-1.05-3.18-.7-.81-1.69-1.32-2.96-1.53-.64-.09-2.55-.13-5.74-.13h-6.14v9.88Z"/>
            <path class="cls-20" d="m382.18,452.72h14.38c3.24,0,5.71.25,7.41.74,2.29.67,4.24,1.87,5.87,3.59,1.63,1.72,2.87,3.82,3.72,6.31.85,2.49,1.28,5.56,1.28,9.21,0,3.21-.4,5.97-1.2,8.29-.97,2.83-2.36,5.13-4.17,6.88-1.36,1.33-3.21,2.36-5.53,3.11-1.74.55-4.06.82-6.96.82h-14.8v-38.95Zm7.87,6.59v25.8h5.87c2.2,0,3.78-.12,4.76-.37,1.28-.32,2.33-.86,3.18-1.62.84-.76,1.53-2.01,2.06-3.76.53-1.74.8-4.12.8-7.13s-.27-5.32-.8-6.94c-.53-1.61-1.28-2.87-2.23-3.77-.96-.9-2.17-1.51-3.64-1.83-1.1-.25-3.25-.37-6.46-.37h-3.53Z"/>
            <path class="cls-20" d="m436.63,491.67v-38.95h28.88v6.59h-21.02v8.64h19.56v6.56h-19.56v10.6h21.76v6.56h-29.63Z"/>
            <path class="cls-20" d="m483.15,491.67v-16.39l-14.27-22.56h9.22l9.17,15.41,8.98-15.41h9.06l-14.32,22.61v16.34h-7.84Z"/>
            <path class="cls-20" d="m509.22,491.67v-38.95h28.88v6.59h-21.02v8.64h19.56v6.56h-19.56v10.6h21.76v6.56h-29.63Z"/>
          </g>
          <g>
            <g>
              <line class="cls-25" x1="345.66" y1="534.2" x2="255.18" y2="534.2"/>
              <line class="cls-4" x1="345.66" y1="534.2" x2="255.18" y2="534.2"/>
            </g>
            <rect class="cls-8" x="255.18" y="534.13" width="90.48" height=".14"/>
          </g>
          <g>
            <g>
              <line class="cls-23" x1="459.02" y1="534.2" x2="541.57" y2="534.2"/>
              <line class="cls-4" x1="459.02" y1="534.2" x2="541.57" y2="534.2"/>
            </g>
            <rect class="cls-3" x="459.02" y="534.13" width="82.55" height=".14"/>
          </g>
          <g>
            <path class="cls-5" d="m353.05,531.73l2.37-.25c.13,1.27.41,2.26.86,2.98.45.71,1.09,1.28,1.92,1.71.83.43,1.77.65,2.81.65,1.49,0,2.65-.36,3.48-1.09.83-.73,1.24-1.68,1.24-2.84,0-.68-.15-1.28-.45-1.79-.3-.51-.75-.93-1.36-1.25-.61-.33-1.91-.79-3.92-1.38-1.79-.53-3.06-1.06-3.82-1.6-.76-.54-1.35-1.22-1.77-2.04-.42-.83-.63-1.76-.63-2.8,0-1.87.6-3.4,1.82-4.59,1.21-1.19,2.84-1.78,4.89-1.78,1.41,0,2.64.28,3.7.84,1.06.56,1.88,1.36,2.46,2.4.58,1.04.9,2.27.94,3.68l-2.41.22c-.13-1.5-.58-2.62-1.35-3.35-.77-.73-1.86-1.09-3.26-1.09s-2.5.32-3.25.95c-.75.64-1.12,1.46-1.12,2.47,0,.94.27,1.66.82,2.18.55.52,1.78,1.04,3.69,1.57,1.87.52,3.19.97,3.94,1.35,1.16.59,2.03,1.37,2.62,2.33.59.96.89,2.11.89,3.44s-.31,2.53-.93,3.62c-.62,1.09-1.47,1.92-2.53,2.48-1.07.57-2.35.85-3.86.85-2.35,0-4.22-.7-5.61-2.11-1.39-1.41-2.12-3.32-2.17-5.73Z"/>
            <path class="cls-10" d="m376.45,539.18v-20.41h-6.25v-2.73h15.04v2.73h-6.28v20.41h-2.51Z"/>
            <path class="cls-11" d="m400.17,516.05h2.51v13.37c0,2.24-.22,4.08-.65,5.52-.44,1.44-1.23,2.57-2.38,3.4-1.15.83-2.61,1.25-4.39,1.25-2.5,0-4.38-.75-5.62-2.24-1.25-1.49-1.87-4.14-1.87-7.92v-13.37h2.51v13.35c0,2.09.16,3.61.49,4.55.33.94.86,1.65,1.6,2.14.74.49,1.64.73,2.71.73,1.79,0,3.09-.51,3.89-1.52.8-1.01,1.21-2.98,1.21-5.9v-13.35Z"/>
            <path class="cls-1" d="m406.84,539.18v-23.14h6.55c1.62,0,2.85.14,3.69.43,1.1.37,2.06,1.04,2.87,2.02.81.98,1.44,2.21,1.89,3.7.45,1.49.68,3.25.68,5.3,0,2.62-.38,4.84-1.15,6.67-.77,1.83-1.75,3.12-2.96,3.88-1.2.76-2.78,1.14-4.73,1.14h-6.85Zm2.51-2.73h4.04c1.63,0,2.87-.27,3.71-.8.84-.53,1.49-1.39,1.94-2.56.6-1.57.9-3.45.9-5.63,0-2.35-.32-4.19-.95-5.53-.64-1.34-1.45-2.24-2.45-2.69-.67-.3-1.74-.46-3.2-.46h-3.98v17.68Z"/>
            <path class="cls-9" d="m426.51,539.18v-23.14h2.51v23.14h-2.51Z"/>
            <path class="cls-6" d="m432.7,527.91c0-3.95.87-6.98,2.6-9.1,1.74-2.12,3.9-3.18,6.49-3.18,1.67,0,3.2.47,4.58,1.42,1.38.95,2.47,2.32,3.27,4.13.8,1.8,1.21,3.95,1.21,6.45,0,3.43-.78,6.22-2.34,8.38-1.72,2.38-3.96,3.57-6.74,3.57s-5.05-1.22-6.76-3.66c-1.55-2.21-2.32-4.88-2.32-8Zm2.59.04c0,2.85.63,5.07,1.89,6.64,1.26,1.57,2.79,2.36,4.59,2.36s3.39-.8,4.63-2.39c1.25-1.59,1.87-3.93,1.87-7.01,0-1.99-.32-3.77-.96-5.34-.49-1.2-1.24-2.16-2.23-2.88-.99-.72-2.08-1.08-3.26-1.08-1.89,0-3.45.79-4.68,2.37-1.23,1.58-1.84,4.02-1.84,7.33Z"/>
          </g>
        </g>
        <g>
          <path class="cls-20" d="m129.98,634.96l-7.15,24.66h-6.41l-6.54-24.66h7.23l4.88,18.68,5.33-18.68h2.67Z"/>
          <path class="cls-20" d="m139.03,634.96v24.66h-7.15v-24.66h7.15Z"/>
          <path class="cls-20" d="m159.43,641.86l-3.32.61c.14-.66.22-1.22.22-1.66,0-2.87-1.74-4.3-5.22-4.3-2.75,0-4.12.99-4.12,2.96,0,1.48,1.54,2.75,4.61,3.81,5.93,2.04,8.89,5.05,8.89,9.03,0,2.34-.83,4.21-2.49,5.63s-3.87,2.12-6.63,2.12c-6.11,0-9.16-2.37-9.16-7.1,0-.39.03-.86.09-1.43l3.45-.76c-.27,1.05-.4,1.96-.4,2.73,0,3.06,1.75,4.59,5.26,4.59,2.81,0,4.21-1.1,4.21-3.31,0-1.64-1.68-3.08-5.04-4.32-4.85-1.78-7.28-4.63-7.28-8.55,0-2.22.81-4,2.43-5.36,1.62-1.35,3.75-2.03,6.39-2.03,5.42,0,8.13,2.44,8.13,7.32Z"/>
          <path class="cls-20" d="m170.79,634.96v24.66h-7.15v-24.66h7.15Z"/>
          <path class="cls-20" d="m185.16,634.53c7.18,0,10.77,4.25,10.77,12.75s-3.66,12.76-10.97,12.76-10.97-4.35-10.97-13.04,3.72-12.47,11.17-12.47Zm-.2,1.97c-1.35,0-2.26.74-2.74,2.23-.48,1.49-.71,4.34-.71,8.55s.24,7.07.71,8.55c.48,1.49,1.39,2.23,2.74,2.23s2.26-.74,2.74-2.23c.48-1.49.71-4.34.71-8.55s-.24-7.05-.71-8.54c-.48-1.49-1.39-2.24-2.74-2.24Z"/>
          <path class="cls-20" d="m217.11,634.96v24.66h-5.47l-10.3-15.61v15.61h-2.4v-24.66h4.53l11.24,16.86v-16.86h2.4Z"/>
          <path class="cls-20" d="m274.57,634.96h7.15v30.82h-7.15v-30.82Z"/>
          <path class="cls-20" d="m339.32,659.62v-24.66h10.23c7.26,0,10.89,4.12,10.89,12.36s-3.76,12.3-11.29,12.3h-9.83Zm7.15-2.04h1.88c1.72,0,2.91-.74,3.58-2.23.66-1.49.99-4.18.99-8.07s-.33-6.58-.98-8.06c-.66-1.48-1.85-2.22-3.59-2.22h-1.88v20.58Z"/>
          <path class="cls-20" d="m379.57,634.96v2.48h-8.83v7.46h7.43v2.48h-7.43v9.77h10.33v2.47h-17.49v-24.66h15.99Z"/>
          <path class="cls-20" d="m399.42,641.86l-3.32.61c.14-.66.22-1.22.22-1.66,0-2.87-1.74-4.3-5.22-4.3-2.75,0-4.12.99-4.12,2.96,0,1.48,1.54,2.75,4.61,3.81,5.93,2.04,8.89,5.05,8.89,9.03,0,2.34-.83,4.21-2.49,5.63s-3.87,2.12-6.63,2.12c-6.11,0-9.16-2.37-9.16-7.1,0-.39.03-.86.09-1.43l3.45-.76c-.26,1.05-.4,1.96-.4,2.73,0,3.06,1.75,4.59,5.26,4.59,2.81,0,4.21-1.1,4.21-3.31,0-1.64-1.68-3.08-5.04-4.32-4.85-1.78-7.28-4.63-7.28-8.55,0-2.22.81-4,2.43-5.36,1.62-1.35,3.75-2.03,6.39-2.03,5.42,0,8.13,2.44,8.13,7.32Z"/>
          <path class="cls-20" d="m410.79,634.96v24.66h-7.15v-24.66h7.15Z"/>
          <path class="cls-20" d="m424.72,646.31h10.15v13.31h-2.28l-.78-1.7c-1.99,1.41-4.09,2.11-6.3,2.11-3.65,0-6.48-1.09-8.5-3.28-2.02-2.19-3.03-5.27-3.03-9.24s1.07-6.99,3.21-9.39c2.14-2.39,4.93-3.59,8.39-3.59,4.55,0,7.32,2.32,8.31,6.97l-3.36,1.54v-.6l-.05-1.34c-.23-2.9-1.57-4.35-4.03-4.35-1.81,0-3.04.77-3.7,2.31-.66,1.54-.99,4.41-.99,8.62,0,3.93.27,6.59.8,8,.54,1.41,1.56,2.11,3.06,2.11,1.77,0,2.66-.99,2.66-2.96v-6.07h-3.56v-2.47Z"/>
          <path class="cls-20" d="m456.42,634.96v24.66h-5.47l-10.3-15.61v15.61h-2.4v-24.66h4.53l11.24,16.86v-16.86h2.4Z"/>
          <path class="cls-20" d="m513.87,634.96h7.15v30.82h-7.15v-30.82Z"/>
          <path class="cls-20" d="m585.8,634.96v24.66h-7.15v-24.66h7.15Z"/>
          <path class="cls-20" d="m612.99,634.96v24.66h-6.9v-17.16l-4.81,17.16h-3.99l-4.93-16.87v16.87h-2.4v-24.66h7.26l4.23,14.89,4.21-14.89h7.33Z"/>
          <path class="cls-20" d="m617.25,659.62v-24.66h10.64c6.03,0,9.05,2.42,9.05,7.24s-3.35,7.32-10.06,7.32h-2.48v10.1h-7.15Zm7.15-12.38h1.61c2.6,0,3.9-1.72,3.9-5.17,0-3.23-1.3-4.84-3.9-4.84h-1.61v10.01Z"/>
          <path class="cls-20" d="m650.55,634.96l6.87,24.66h-7.19l-1.46-5.35h-7.43l-1.57,5.35h-2.8l7.3-24.66h6.29Zm-8.51,16.84h6.05l-2.91-10.93-3.14,10.93Z"/>
          <path class="cls-20" d="m675.68,649.72l3.05.79c.05.63.07,1.17.07,1.63,0,2.4-.87,4.31-2.6,5.75s-4.06,2.15-6.97,2.15c-7.31,0-10.97-4.11-10.97-12.34,0-3.9,1.07-7.07,3.2-9.49,2.13-2.43,4.91-3.64,8.33-3.64,5.34,0,8,2.57,8,7.7l-3.07,1.41c.04-.72.05-1.28.05-1.68,0-3.64-1.46-5.46-4.37-5.46-3.08,0-4.62,3.86-4.62,11.58,0,6.64,1.72,9.95,5.17,9.95,1.42,0,2.6-.57,3.55-1.7s1.42-2.55,1.42-4.25c0-.54-.08-1.34-.24-2.4Z"/>
          <path class="cls-20" d="m698.82,634.96v2.48h-6.05v22.19h-7.59v-22.19h-6.09v-2.48h19.73Z"/>
        </g>
      </g>
    </g>
  </g>
</svg>