<?xml version="1.0" encoding="UTF-8"?>
<svg id="Layer_1" data-name="Layer 1" xmlns="http://www.w3.org/2000/svg" xmlns:xlink="http://www.w3.org/1999/xlink" viewBox="0 0 2120.29 2284.09">
  <defs>
    <style>
      .cls-1 {
        fill: url(#linear-gradient-12);
      }

      .cls-1, .cls-2, .cls-3, .cls-4, .cls-5, .cls-6, .cls-7, .cls-8, .cls-9, .cls-10 {
        stroke-width: 0px;
      }

      .cls-2 {
        fill: url(#linear-gradient);
      }

      .cls-11 {
        fill: none;
      }

      .cls-11, .cls-12, .cls-13, .cls-14, .cls-15, .cls-16, .cls-17, .cls-18, .cls-19, .cls-20, .cls-21, .cls-22, .cls-23 {
        stroke-miterlimit: 10;
      }

      .cls-11, .cls-12, .cls-13, .cls-15, .cls-16, .cls-17, .cls-18, .cls-19, .cls-20, .cls-21, .cls-22, .cls-23 {
        stroke: #000;
      }

      .cls-3 {
        fill: url(#linear-gradient-6);
      }

      .cls-12 {
        fill: url(#linear-gradient-20);
      }

      .cls-24 {
        fill: url(#linear-gradient-14);
      }

      .cls-13 {
        fill: url(#linear-gradient-5);
      }

      .cls-14 {
        fill: #231f20;
        stroke: #231f20;
      }

      .cls-4 {
        fill: url(#linear-gradient-11);
      }

      .cls-15 {
        fill: url(#linear-gradient-19);
      }

      .cls-16 {
        fill: url(#linear-gradient-18);
      }

      .cls-5 {
        fill: url(#linear-gradient-13);
      }

      .cls-25 {
        fill: url(#linear-gradient-16);
      }

      .cls-17 {
        fill: url(#linear-gradient-22);
      }

      .cls-6 {
        fill: url(#linear-gradient-7);
      }

      .cls-7 {
        fill: url(#linear-gradient-3);
      }

      .cls-8 {
        fill: url(#linear-gradient-9);
      }

      .cls-18 {
        fill: url(#linear-gradient-21);
      }

      .cls-9 {
        fill: url(#linear-gradient-8);
      }

      .cls-19 {
        fill: url(#linear-gradient-4);
      }

      .cls-20 {
        fill: url(#linear-gradient-17);
      }

      .cls-21 {
        fill: url(#linear-gradient-2);
      }

      .cls-22 {
        fill: url(#linear-gradient-23);
      }

      .cls-10 {
        fill: url(#linear-gradient-10);
      }

      .cls-23 {
        fill: url(#linear-gradient-15);
      }
    </style>
    <linearGradient id="linear-gradient" x1="775.64" y1="475.85" x2="2047.75" y2="475.85" gradientTransform="translate(-59.77 21.12) rotate(9.65)" gradientUnits="userSpaceOnUse">
      <stop offset="0" stop-color="#27aae1"/>
      <stop offset="1" stop-color="#293a7e"/>
    </linearGradient>
    <linearGradient id="linear-gradient-2" x1="419.27" y1="239.99" x2="3053.55" y2="127.74" gradientTransform="translate(-59.77 21.12) rotate(9.65)" gradientUnits="userSpaceOnUse">
      <stop offset="0" stop-color="#6d6e71"/>
      <stop offset=".16" stop-color="#888a8d"/>
      <stop offset=".32" stop-color="#a4a7a9"/>
      <stop offset=".43" stop-color="#a7a9ac"/>
    </linearGradient>
    <linearGradient id="linear-gradient-3" x1="254.27" y1="733.56" x2="1526.37" y2="733.56" gradientTransform="translate(114.57 -17.57) rotate(8.95)" xlink:href="#linear-gradient"/>
    <linearGradient id="linear-gradient-4" x1="302.42" y1="979.69" x2="1572.97" y2="979.69" gradientTransform="translate(114.57 -17.57) rotate(8.95)" xlink:href="#linear-gradient-2"/>
    <linearGradient id="linear-gradient-5" x1="861.52" y1="672.52" x2="964.07" y2="672.52" gradientTransform="matrix(1,0,0,1,0,0)" xlink:href="#linear-gradient-2"/>
    <linearGradient id="linear-gradient-6" x1="0" y1="1789.54" x2="226.97" y2="1789.54" gradientTransform="matrix(1,0,0,1,0,0)" xlink:href="#linear-gradient"/>
    <linearGradient id="linear-gradient-7" x1="264.38" y1="1789.54" x2="492.71" y2="1789.54" gradientTransform="matrix(1,0,0,1,0,0)" xlink:href="#linear-gradient"/>
    <linearGradient id="linear-gradient-8" x1="550.57" y1="1789.54" x2="608.24" y2="1789.54" gradientTransform="matrix(1,0,0,1,0,0)" xlink:href="#linear-gradient"/>
    <linearGradient id="linear-gradient-9" x1="663.38" y1="1789.54" x2="920.15" y2="1789.54" gradientTransform="matrix(1,0,0,1,0,0)" xlink:href="#linear-gradient"/>
    <linearGradient id="linear-gradient-10" x1="951.13" y1="1789.54" x2="1190.57" y2="1789.54" gradientTransform="matrix(1,0,0,1,0,0)" xlink:href="#linear-gradient"/>
    <linearGradient id="linear-gradient-11" x1="1350.33" y1="1789.54" x2="1567.56" y2="1789.54" gradientTransform="matrix(1,0,0,1,0,0)" xlink:href="#linear-gradient"/>
    <linearGradient id="linear-gradient-12" x1="1586.84" y1="1789.54" x2="1853.95" y2="1789.54" gradientTransform="matrix(1,0,0,1,0,0)" xlink:href="#linear-gradient"/>
    <linearGradient id="linear-gradient-13" x1="1882.59" y1="1789.54" x2="2099.82" y2="1789.54" gradientTransform="matrix(1,0,0,1,0,0)" xlink:href="#linear-gradient"/>
    <linearGradient id="linear-gradient-14" x1="19.97" y1="2244.14" x2="683.34" y2="2244.14" gradientTransform="matrix(1,0,0,1,0,0)" xlink:href="#linear-gradient-2"/>
    <linearGradient id="linear-gradient-15" x1="19.97" y1="2244.14" x2="683.34" y2="2244.14" gradientTransform="matrix(1,0,0,1,0,0)" xlink:href="#linear-gradient-2"/>
    <linearGradient id="linear-gradient-16" x1="1514.5" y1="2244.14" x2="2119.79" y2="2244.14" gradientTransform="matrix(1,0,0,1,0,0)" xlink:href="#linear-gradient-2"/>
    <linearGradient id="linear-gradient-17" x1="1514.5" y1="2244.14" x2="2119.79" y2="2244.14" gradientTransform="matrix(1,0,0,1,0,0)" xlink:href="#linear-gradient-2"/>
    <linearGradient id="linear-gradient-18" x1="737.57" y1="2195.81" x2="848.32" y2="2195.81" gradientTransform="matrix(1,0,0,1,0,0)" xlink:href="#linear-gradient-2"/>
    <linearGradient id="linear-gradient-19" x1="863.25" y1="2195.87" x2="973.53" y2="2195.87" gradientTransform="matrix(1,0,0,1,0,0)" xlink:href="#linear-gradient-2"/>
    <linearGradient id="linear-gradient-20" x1="992.05" y1="2197.32" x2="1101.4" y2="2197.32" gradientTransform="matrix(1,0,0,1,0,0)" xlink:href="#linear-gradient-2"/>
    <linearGradient id="linear-gradient-21" x1="1131.95" y1="2195.87" x2="1246.98" y2="2195.87" gradientTransform="matrix(1,0,0,1,0,0)" xlink:href="#linear-gradient-2"/>
    <linearGradient id="linear-gradient-22" x1="1276.14" y1="2195.87" x2="1294.55" y2="2195.87" gradientTransform="matrix(1,0,0,1,0,0)" xlink:href="#linear-gradient-2"/>
    <linearGradient id="linear-gradient-23" x1="1321.51" y1="2195.81" x2="1454.59" y2="2195.81" gradientTransform="matrix(1,0,0,1,0,0)" xlink:href="#linear-gradient-2"/>
  </defs>
  <g>
    <g>
      <path class="cls-2" d="m1369.69,522c298.44,110.49,464.56,421.19,402.53,723.6,15.58-28.06,29.23-57.65,40.71-88.67,121.98-329.46-46.22-695.43-375.69-817.41-329.46-121.98-695.43,46.22-817.41,375.69-11.49,31.02-20.4,62.37-26.84,93.8,149.86-269.9,478.25-397.51,776.69-287.02Z"/>
      <path class="cls-21" d="m1152.21,198.36c315.92-38.35,605.81,161.87,689.07,459.15,1.01-32.07-.4-64.63-4.38-97.47C1794.56,211.28,1477.52-37.13,1128.76,5.2c-348.76,42.33-597.17,359.37-554.84,708.13,3.99,32.84,10.41,64.79,19.06,95.69,9.72-308.56,243.3-572.32,559.22-610.66Z"/>
    </g>
    <g>
      <path class="cls-7" d="m764.91,1051.95c-299.78-106.82-469.7-415.45-411.39-718.6-15.23,28.24-28.52,58-39.62,89.16-117.92,330.94,54.76,694.81,385.7,812.73,330.94,117.92,694.81-54.76,812.73-385.7,11.1-31.16,19.63-62.61,25.69-94.13-146.53,271.72-473.33,403.36-773.11,296.54Z"/>
      <path class="cls-19" d="m951.51,1339.92c-317.34,23.89-597.79-189.35-667.4-490.12-2.47,31.99-2.56,64.58-.07,97.57,26.37,350.33,331.75,612.95,682.07,586.58,350.33-26.37,612.95-331.75,586.58-682.07-2.48-32.99-7.44-65.2-14.68-96.46-23.79,307.79-269.16,560.62-586.5,584.5Z"/>
    </g>
    <circle class="cls-14" cx="994.28" cy="772.7" r="151.46"/>
    <circle class="cls-13" cx="912.79" cy="672.52" r="51.28"/>
  </g>
  <g>
    <path class="cls-3" d="m84.75,1932.34v-237.3H0v-48.32h226.97v48.32h-84.55v237.3h-57.67Z"/>
    <path class="cls-6" d="m264.38,1932.34v-285.61h57.67v112.41h113v-112.41h57.67v285.61h-57.67v-124.88h-113v124.88h-57.67Z"/>
    <path class="cls-9" d="m550.57,1932.34v-285.61h57.67v285.61h-57.67Z"/>
    <path class="cls-8" d="m663.38,1932.34v-285.61h121.38c30.52,0,52.7,2.57,66.53,7.7,13.83,5.13,24.9,14.26,33.22,27.37,8.31,13.12,12.47,28.12,12.47,45,0,21.43-6.3,39.13-18.9,53.09-12.6,13.96-31.43,22.76-56.5,26.4,12.47,7.28,22.76,15.26,30.88,23.96,8.12,8.7,19.06,24.16,32.83,46.37l34.87,55.72h-68.97l-41.69-62.15c-14.81-22.21-24.94-36.2-30.39-41.99-5.46-5.78-11.24-9.74-17.34-11.88-6.11-2.14-15.78-3.21-29.03-3.21h-11.69v119.23h-57.67Zm57.67-164.82h42.67c27.67,0,44.94-1.17,51.82-3.51,6.88-2.34,12.27-6.36,16.17-12.08,3.9-5.71,5.84-12.86,5.84-21.43,0-9.61-2.57-17.37-7.7-23.28-5.13-5.91-12.37-9.64-21.72-11.2-4.68-.65-18.7-.97-42.08-.97h-45v72.47Z"/>
    <path class="cls-10" d="m951.13,1646.73h105.4c23.77,0,41.89,1.82,54.36,5.46,16.75,4.94,31.1,13.71,43.06,26.3,11.95,12.6,21.04,28.02,27.28,46.27,6.23,18.25,9.35,40.75,9.35,67.51,0,23.51-2.92,43.77-8.77,60.79-7.14,20.78-17.34,37.6-30.59,50.46-10,9.74-23.51,17.34-40.52,22.79-12.73,4.03-29.74,6.04-51.04,6.04h-108.52v-285.61Zm57.67,48.32v189.17h43.06c16.1,0,27.73-.91,34.87-2.73,9.35-2.34,17.11-6.3,23.28-11.88,6.17-5.58,11.2-14.77,15.1-27.57,3.9-12.79,5.84-30.23,5.84-52.31s-1.95-39.03-5.84-50.85c-3.9-11.82-9.35-21.04-16.37-27.66-7.01-6.62-15.91-11.11-26.69-13.44-8.05-1.82-23.84-2.73-47.34-2.73h-25.91Z"/>
    <path class="cls-4" d="m1350.33,1932.34v-285.61h211.77v48.32h-154.11v63.32h143.39v48.12h-143.39v77.74h159.56v48.12h-217.23Z"/>
    <path class="cls-1" d="m1691.46,1932.34v-120.21l-104.62-165.41h67.6l67.21,113,65.85-113h66.44l-105.01,165.8v119.82h-57.47Z"/>
    <path class="cls-5" d="m1882.59,1932.34v-285.61h211.77v48.32h-154.11v63.32h143.39v48.12h-143.39v77.74h159.56v48.12h-217.23Z"/>
  </g>
  <g>
    <g>
      <line class="cls-24" x1="683.34" y1="2244.14" x2="19.97" y2="2244.14"/>
      <line class="cls-11" x1="683.34" y1="2244.14" x2="19.97" y2="2244.14"/>
    </g>
    <rect class="cls-23" x="19.97" y="2243.64" width="663.38" height="1"/>
  </g>
  <g>
    <g>
      <line class="cls-25" x1="1514.5" y1="2244.14" x2="2119.79" y2="2244.14"/>
      <line class="cls-11" x1="1514.5" y1="2244.14" x2="2119.79" y2="2244.14"/>
    </g>
    <rect class="cls-20" x="1514.5" y="2243.64" width="605.28" height="1"/>
  </g>
  <g>
    <path class="cls-16" d="m737.57,2226.08l17.36-1.85c.93,9.34,3.03,16.61,6.31,21.81,3.28,5.21,7.97,9.39,14.06,12.56,6.09,3.17,12.96,4.75,20.6,4.75,10.95,0,19.46-2.67,25.52-8.02,6.06-5.35,9.08-12.3,9.08-20.84,0-5-1.1-9.37-3.3-13.11-2.2-3.73-5.52-6.79-9.95-9.18-4.44-2.39-14.02-5.76-28.76-10.12-13.12-3.89-22.45-7.81-28-11.74-5.55-3.94-9.88-8.93-12.96-14.99-3.09-6.06-4.63-12.9-4.63-20.54,0-13.73,4.44-24.96,13.31-33.68,8.87-8.72,20.83-13.08,35.87-13.08,10.34,0,19.38,2.04,27.14,6.13,7.75,4.09,13.77,9.95,18.05,17.59,4.28,7.64,6.58,16.63,6.89,26.96l-17.71,1.62c-.93-11.03-4.22-19.21-9.89-24.53-5.67-5.32-13.64-7.98-23.9-7.98s-18.36,2.33-23.84,7c-5.48,4.67-8.22,10.7-8.22,18.11,0,6.87,2.01,12.19,6.02,15.97,4.01,3.78,13.04,7.61,27.07,11.48,13.72,3.8,23.36,7.09,28.92,9.88,8.48,4.34,14.89,10.04,19.22,17.09,4.33,7.05,6.5,15.47,6.5,25.26s-2.28,18.55-6.83,26.53c-4.55,7.98-10.74,14.04-18.57,18.21-7.83,4.16-17.26,6.24-28.29,6.24-17.2,0-30.92-5.17-41.14-15.51-10.22-10.34-15.53-24.34-15.91-42.01Z"/>
    <path class="cls-15" d="m909.07,2280.7v-149.63h-45.83v-20.02h110.28v20.02h-46.06v149.63h-18.4Z"/>
    <path class="cls-12" d="m1083,2111.05h18.4v98.02c0,16.43-1.6,29.92-4.8,40.45-3.2,10.53-9.02,18.84-17.46,24.94-8.44,6.1-19.17,9.14-32.19,9.14-18.34,0-32.08-5.48-41.21-16.43-9.13-10.95-13.7-30.32-13.7-58.09v-98.02h18.4v97.9c0,15.35,1.2,26.46,3.59,33.33,2.39,6.87,6.31,12.09,11.75,15.68,5.44,3.59,12.05,5.38,19.85,5.38,13.11,0,22.62-3.7,28.53-11.11,5.9-7.41,8.85-21.83,8.85-43.28v-97.9Z"/>
    <path class="cls-18" d="m1131.95,2280.7v-169.65h48.02c11.88,0,20.91,1.04,27.08,3.12,8.1,2.7,15.12,7.64,21.06,14.81,5.94,7.18,10.57,16.22,13.89,27.14,3.32,10.92,4.98,23.86,4.98,38.83,0,19.21-2.82,35.51-8.45,48.89-5.63,13.39-12.87,22.88-21.7,28.47-8.83,5.59-20.39,8.39-34.66,8.39h-50.22Zm18.4-20.02h29.62c11.96,0,21.02-1.95,27.2-5.84,6.17-3.89,10.92-10.16,14.23-18.8,4.4-11.49,6.6-25.27,6.6-41.31,0-17.2-2.33-30.72-7-40.56-4.67-9.84-10.67-16.41-18-19.73-4.94-2.24-12.77-3.36-23.49-3.36h-29.16v129.61Z"/>
    <path class="cls-17" d="m1276.14,2280.7v-169.65h18.4v169.65h-18.4Z"/>
    <path class="cls-22" d="m1321.51,2198.07c0-28.93,6.37-51.17,19.09-66.71,12.73-15.54,28.58-23.32,47.56-23.32,12.27,0,23.45,3.47,33.56,10.42,10.11,6.94,18.11,17.03,24.01,30.26,5.9,13.23,8.85,28.99,8.85,47.27,0,25.15-5.71,45.63-17.13,61.45-12.58,17.44-29.05,26.15-49.41,26.15s-37.03-8.95-49.53-26.85c-11.34-16.2-17.01-35.76-17.01-58.67Zm18.98.29c0,20.93,4.61,37.16,13.83,48.7,9.22,11.54,20.42,17.32,33.62,17.32s24.82-5.83,33.96-17.49c9.14-11.66,13.71-28.8,13.71-51.42,0-14.59-2.35-27.64-7.06-39.15-3.63-8.8-9.08-15.85-16.38-21.14-7.29-5.29-15.26-7.93-23.9-7.93-13.89,0-25.33,5.79-34.31,17.37-8.99,11.58-13.48,29.5-13.48,53.74Z"/>
  </g>
</svg>